<svg width="512" height="512" viewBox="0 0 512 512" fill="none" xmlns="http://www.w3.org/2000/svg">
<path fill-rule="evenodd" clip-rule="evenodd" d="M255.611 80.0001C213.786 79.9714 172.457 89.0528 134.497 106.613C96.537 124.173 62.8573 149.79 35.7996 181.684C30.0829 188.422 30.9111 198.519 37.6494 204.235C44.3877 209.952 54.4844 209.124 60.2011 202.385C84.2524 174.036 114.19 151.265 147.932 135.656C181.674 120.047 218.411 111.975 255.589 112C292.766 112.026 329.492 120.148 363.213 135.803C396.933 151.459 426.84 174.27 450.852 202.653C456.56 209.399 466.655 210.241 473.401 204.534C480.147 198.826 480.99 188.731 475.282 181.985C448.268 150.054 414.624 124.391 376.688 106.779C338.752 89.1668 297.435 80.0287 255.611 80.0001ZM166.624 177.66C194.772 166.001 224.94 160 255.407 160C285.874 160 316.042 166.001 344.189 177.66C372.337 189.319 397.913 206.408 419.456 227.951C425.704 234.2 425.704 244.33 419.456 250.579C413.207 256.827 403.077 256.827 396.828 250.579C378.257 232.007 356.209 217.275 331.944 207.224C307.678 197.173 281.671 192 255.407 192C229.143 192 203.135 197.173 178.87 207.224C154.605 217.275 132.557 232.007 113.986 250.579C107.737 256.827 97.6066 256.827 91.3582 250.579C85.1098 244.33 85.1098 234.2 91.3582 227.951C112.901 206.408 138.477 189.319 166.624 177.66ZM255.4 240C236.49 240 217.765 243.725 200.294 250.961C182.823 258.198 166.949 268.805 153.577 282.177C147.329 288.425 147.329 298.556 153.577 304.804C159.825 311.052 169.956 311.052 176.204 304.804C186.604 294.404 198.951 286.154 212.54 280.525C226.128 274.897 240.692 272 255.4 272C270.108 272 284.672 274.897 298.261 280.525C311.849 286.154 324.196 294.404 334.596 304.804C340.845 311.052 350.975 311.052 357.224 304.804C363.472 298.556 363.472 288.425 357.224 282.177C343.852 268.805 327.978 258.198 310.507 250.961C293.036 243.725 274.311 240 255.4 240ZM231.406 368C231.406 354.745 242.151 344 255.406 344C268.661 344 279.406 354.745 279.406 368C279.406 381.255 268.661 392 255.406 392C242.151 392 231.406 381.255 231.406 368ZM255.406 312C224.478 312 199.406 337.072 199.406 368C199.406 398.928 224.478 424 255.406 424C286.334 424 311.406 398.928 311.406 368C311.406 337.072 286.334 312 255.406 312Z" fill="#00ff11" id="id_101"></path>
</svg>